HIERARCHY
ROOT mixamorig:Hips
{
	OFFSET 0.000000 104.274902 0.000000
	CHANNELS 6 Xposition Yposition Zposition Xrotation Yrotation Zrotation
	JOINT mixamorig:Spine
	{
		OFFSET 0.000000 10.181549 0.131524
		CHANNELS 6 Xposition Yposition Zposition Xrotation Yrotation Zrotation
		JOINT mixamorig:Spine1
		{
			OFFSET 0.000000 9.893990 -1.470706
			CHANNELS 3 Xrotation Yrotation Zrotation
			JOINT mixamorig:Spine2
			{
				OFFSET 0.000000 9.220787 -1.370637
				CHANNELS 3 Xrotation Yrotation Zrotation
				JOINT mixamorig:Neck
				{
					OFFSET 0.000000 16.740372 -2.049022
					CHANNELS 6 Xposition Yposition Zposition Xrotation Yrotation Zrotation
					JOINT mixamorig:Head
					{
						OFFSET 0.000000 9.617859 1.684976
						CHANNELS 6 Xposition Yposition Zposition Xrotation Yrotation Zrotation
						JOINT mixamorig:HeadTop_End
						{
							OFFSET 0.000000 22.037384 7.501072
							CHANNELS 6 Xposition Yposition Zposition Xrotation Yrotation Zrotation
							End Site
							{
								OFFSET 0.000000 23.106567 -2.828246
							}
						}
					}
				}
				JOINT mixamorig:RightShoulder
				{
					OFFSET -4.570000 11.014877 -2.160840
					CHANNELS 6 Xposition Yposition Zposition Xrotation Yrotation Zrotation
					JOINT mixamorig:RightArm
					{
						OFFSET -10.592867 -0.524796 -2.232105
						CHANNELS 3 Xrotation Yrotation Zrotation
						JOINT mixamorig:RightForeArm
						{
							OFFSET -27.841497 0.000000 -0.000002
							CHANNELS 3 Xrotation Yrotation Zrotation
							JOINT mixamorig:RightHand
							{
								OFFSET -28.328812 0.000000 -0.000001
								CHANNELS 3 Xrotation Yrotation Zrotation
								JOINT mixamorig:RightHandThumb1
								{
									OFFSET -2.464798 -1.573990 2.681911
									CHANNELS 6 Xposition Yposition Zposition Xrotation Yrotation Zrotation
									JOINT mixamorig:RightHandThumb2
									{
										OFFSET -3.244781 -1.873383 1.873376
										CHANNELS 3 Xrotation Yrotation Zrotation
										JOINT mixamorig:RightHandThumb3
										{
											OFFSET -2.646263 -1.527817 1.527818
											CHANNELS 6 Xposition Yposition Zposition Xrotation Yrotation Zrotation
											JOINT mixamorig:RightHandThumb4
											{
												OFFSET -1.994591 -1.151581 1.151575
												CHANNELS 6 Xposition Yposition Zposition Xrotation Yrotation Zrotation
												End Site
												{
													OFFSET -1.860176 -1.142715 1.365483
												}
											}
										}
									}
								}
								JOINT mixamorig:RightHandIndex1
								{
									OFFSET -9.108299 -0.517883 2.259803
									CHANNELS 6 Xposition Yposition Zposition Xrotation Yrotation Zrotation
									JOINT mixamorig:RightHandIndex2
									{
										OFFSET -3.699997 0.000000 0.000000
										CHANNELS 3 Xrotation Yrotation Zrotation
										JOINT mixamorig:RightHandIndex3
										{
											OFFSET -2.850006 0.000000 0.000000
											CHANNELS 3 Xrotation Yrotation Zrotation
											JOINT mixamorig:RightHandIndex4
											{
												OFFSET -2.772194 0.000000 0.000000
												CHANNELS 3 Xrotation Yrotation Zrotation
												End Site
												{
													OFFSET -2.772202 0.000000 -0.000484
												}
											}
										}
									}
								}
								JOINT mixamorig:RightHandMiddle1
								{
									OFFSET -9.532501 0.000000 -0.000000
									CHANNELS 6 Xposition Yposition Zposition Xrotation Yrotation Zrotation
									JOINT mixamorig:RightHandMiddle2
									{
										OFFSET -3.699997 0.000000 0.000000
										CHANNELS 3 Xrotation Yrotation Zrotation
										JOINT mixamorig:RightHandMiddle3
										{
											OFFSET -2.949997 0.000000 0.000000
											CHANNELS 3 Xrotation Yrotation Zrotation
											JOINT mixamorig:RightHandMiddle4
											{
												OFFSET -2.946594 0.000000 0.000000
												CHANNELS 3 Xrotation Yrotation Zrotation
												End Site
												{
													OFFSET -2.946602 0.000000 -0.000982
												}
											}
										}
									}
								}
								JOINT mixamorig:RightHandRing1
								{
									OFFSET -9.103600 -0.043106 -1.865100
									CHANNELS 6 Xposition Yposition Zposition Xrotation Yrotation Zrotation
									JOINT mixamorig:RightHandRing2
									{
										OFFSET -3.379303 0.000000 0.000000
										CHANNELS 3 Xrotation Yrotation Zrotation
										JOINT mixamorig:RightHandRing3
										{
											OFFSET -2.889694 0.000000 0.000000
											CHANNELS 3 Xrotation Yrotation Zrotation
											JOINT mixamorig:RightHandRing4
											{
												OFFSET -2.638802 0.000000 0.000000
												CHANNELS 3 Xrotation Yrotation Zrotation
												End Site
												{
													OFFSET -2.638802 0.000000 0.004218
												}
											}
										}
									}
								}
								JOINT mixamorig:RightHandPinky1
								{
									OFFSET -8.076698 -0.486725 -3.806299
									CHANNELS 6 Xposition Yposition Zposition Xrotation Yrotation Zrotation
									JOINT mixamorig:RightHandPinky2
									{
										OFFSET -3.600006 0.000000 0.000000
										CHANNELS 3 Xrotation Yrotation Zrotation
										JOINT mixamorig:RightHandPinky3
										{
											OFFSET -2.099998 0.000000 0.000000
											CHANNELS 3 Xrotation Yrotation Zrotation
											JOINT mixamorig:RightHandPinky4
											{
												OFFSET -2.115791 0.000000 0.000000
												CHANNELS 3 Xrotation Yrotation Zrotation
												End Site
												{
													OFFSET -2.115799 0.000000 0.000174
												}
											}
										}
									}
								}
							}
						}
					}
				}
				JOINT mixamorig:LeftShoulder
				{
					OFFSET 4.570400 11.014679 -2.160816
					CHANNELS 6 Xposition Yposition Zposition Xrotation Yrotation Zrotation
					JOINT mixamorig:LeftArm
					{
						OFFSET 10.592373 -0.524597 -2.232116
						CHANNELS 3 Xrotation Yrotation Zrotation
						JOINT mixamorig:LeftForeArm
						{
							OFFSET 27.841488 0.000000 0.000001
							CHANNELS 3 Xrotation Yrotation Zrotation
							JOINT mixamorig:LeftHand
							{
								OFFSET 28.328808 0.000000 -0.000000
								CHANNELS 3 Xrotation Yrotation Zrotation
								JOINT mixamorig:LeftHandThumb1
								{
									OFFSET 2.466103 -1.576202 2.681698
									CHANNELS 6 Xposition Yposition Zposition Xrotation Yrotation Zrotation
									JOINT mixamorig:LeftHandThumb2
									{
										OFFSET 3.243317 -1.872528 1.872530
										CHANNELS 3 Xrotation Yrotation Zrotation
										JOINT mixamorig:LeftHandThumb3
										{
											OFFSET 2.647881 -1.528763 1.528754
											CHANNELS 6 Xposition Yposition Zposition Xrotation Yrotation Zrotation
											JOINT mixamorig:LeftHandThumb4
											{
												OFFSET 1.998924 -1.154083 1.154080
												CHANNELS 6 Xposition Yposition Zposition Xrotation Yrotation Zrotation
												End Site
												{
													OFFSET 1.884041 -1.149155 1.337651
												}
											}
										}
									}
								}
								JOINT mixamorig:LeftHandIndex1
								{
									OFFSET 9.109299 -0.518005 2.259900
									CHANNELS 6 Xposition Yposition Zposition Xrotation Yrotation Zrotation
									JOINT mixamorig:LeftHandIndex2
									{
										OFFSET 3.699997 0.000000 0.000000
										CHANNELS 3 Xrotation Yrotation Zrotation
										JOINT mixamorig:LeftHandIndex3
										{
											OFFSET 2.850006 0.000000 0.000000
											CHANNELS 3 Xrotation Yrotation Zrotation
											JOINT mixamorig:LeftHandIndex4
											{
												OFFSET 2.774895 0.000000 0.000000
												CHANNELS 3 Xrotation Yrotation Zrotation
												End Site
												{
													OFFSET 2.774902 0.000000 -0.000072
												}
											}
										}
									}
								}
								JOINT mixamorig:LeftHandMiddle1
								{
									OFFSET 9.533401 0.000000 0.000000
									CHANNELS 6 Xposition Yposition Zposition Xrotation Yrotation Zrotation
									JOINT mixamorig:LeftHandMiddle2
									{
										OFFSET 3.699997 0.000000 0.000000
										CHANNELS 3 Xrotation Yrotation Zrotation
										JOINT mixamorig:LeftHandMiddle3
										{
											OFFSET 2.949997 0.000000 0.000000
											CHANNELS 3 Xrotation Yrotation Zrotation
											JOINT mixamorig:LeftHandMiddle4
											{
												OFFSET 2.952896 0.000000 0.000000
												CHANNELS 3 Xrotation Yrotation Zrotation
												End Site
												{
													OFFSET 2.952904 0.000000 0.000165
												}
											}
										}
									}
								}
								JOINT mixamorig:LeftHandRing1
								{
									OFFSET 9.104500 -0.042999 -1.865101
									CHANNELS 6 Xposition Yposition Zposition Xrotation Yrotation Zrotation
									JOINT mixamorig:LeftHandRing2
									{
										OFFSET 3.149994 0.000000 0.000000
										CHANNELS 3 Xrotation Yrotation Zrotation
										JOINT mixamorig:LeftHandRing3
										{
											OFFSET 2.950005 0.000000 0.000000
											CHANNELS 3 Xrotation Yrotation Zrotation
											JOINT mixamorig:LeftHandRing4
											{
												OFFSET 2.644302 0.000000 0.000000
												CHANNELS 3 Xrotation Yrotation Zrotation
												End Site
												{
													OFFSET 2.644302 0.000000 0.000083
												}
											}
										}
									}
								}
								JOINT mixamorig:LeftHandPinky1
								{
									OFFSET 8.077805 -0.486893 -3.806302
									CHANNELS 6 Xposition Yposition Zposition Xrotation Yrotation Zrotation
									JOINT mixamorig:LeftHandPinky2
									{
										OFFSET 3.600006 0.000000 0.000000
										CHANNELS 3 Xrotation Yrotation Zrotation
										JOINT mixamorig:LeftHandPinky3
										{
											OFFSET 2.099998 0.000000 0.000000
											CHANNELS 3 Xrotation Yrotation Zrotation
											JOINT mixamorig:LeftHandPinky4
											{
												OFFSET 2.125496 0.000000 0.000000
												CHANNELS 3 Xrotation Yrotation Zrotation
												End Site
												{
													OFFSET 2.125504 0.000000 -0.001254
												}
											}
										}
									}
								}
							}
						}
					}
				}
			}
		}
	}
	JOINT mixamorig:RightUpLeg
	{
		OFFSET -8.207800 -6.751701 -1.599544
		CHANNELS 6 Xposition Yposition Zposition Xrotation Yrotation Zrotation
		JOINT mixamorig:RightLeg
		{
			OFFSET 0.000004 -44.370152 0.345934
			CHANNELS 3 Xrotation Yrotation Zrotation
			JOINT mixamorig:RightFoot
			{
				OFFSET 0.000004 -44.423664 -3.043535
				CHANNELS 3 Xrotation Yrotation Zrotation
				JOINT mixamorig:RightToeBase
				{
					OFFSET 0.000001 -8.728691 10.710592
					CHANNELS 3 Xrotation Yrotation Zrotation
					JOINT mixamorig:RightToe_End
					{
						OFFSET 0.000000 -0.000665 9.278101
						CHANNELS 3 Xrotation Yrotation Zrotation
						End Site
						{
							OFFSET 0.000000 -0.000665 9.278103
						}
					}
				}
			}
		}
	}
	JOINT mixamorig:LeftUpLeg
	{
		OFFSET 8.207800 -6.751701 -1.599544
		CHANNELS 6 Xposition Yposition Zposition Xrotation Yrotation Zrotation
		JOINT mixamorig:LeftLeg
		{
			OFFSET 0.000004 -44.370037 0.346940
			CHANNELS 3 Xrotation Yrotation Zrotation
			JOINT mixamorig:LeftFoot
			{
				OFFSET 0.000004 -44.423611 -3.044388
				CHANNELS 3 Xrotation Yrotation Zrotation
				JOINT mixamorig:LeftToeBase
				{
					OFFSET 0.000001 -8.728690 10.710592
					CHANNELS 3 Xrotation Yrotation Zrotation
					JOINT mixamorig:LeftToe_End
					{
						OFFSET 0.000000 -0.000680 9.278101
						CHANNELS 3 Xrotation Yrotation Zrotation
						End Site
						{
							OFFSET 0.000000 -0.000680 9.278101
						}
					}
				}
			}
		}
	}
}
MOTION
Frames: 4
Frame Time: 0.033333
-1.013376 88.182541 0.680666 -5.064145 -42.612638 0.558523 0.000000 10.181549 0.131524 9.494388 7.237950 -1.953791 2.187716 0.989897 -0.914785 2.202829 0.982785 -0.893563 0.000001 16.740366 -2.049023 0.084654 13.220550 4.538682 -0.000001 9.617846 1.684973 8.920922 20.138135 -4.130232 -0.000002 22.037354 7.501073 0.000000 -0.000000 0.000000 -4.570000 11.014874 -2.160840 3.036132 13.027200 -5.371396 -48.713797 27.172791 83.457118 0.000215 105.988294 -0.000176 -8.345315 17.548042 8.775664 -2.464792 -1.573996 2.681912 -7.341126 13.749645 7.412335 9.855786 -44.489130 -3.903164 -2.646267 -1.527793 1.527822 -0.115755 -14.513034 -28.973891 -1.994594 -1.151590 1.151578 -0.000001 -0.000004 -0.000002 -9.108294 -0.517882 2.259806 -0.124382 -2.384773 45.108892 4.500584 -4.654527 88.071198 1.723205 -3.618367 50.920119 0.000002 0.000002 0.000002 -9.532513 0.000023 0.000004 -0.761637 -2.932893 39.031061 5.133883 -4.632747 95.881670 1.739746 -3.631691 51.181377 -0.000001 -0.000001 0.000005 -9.103601 -0.043101 -1.865097 0.154745 -4.068809 39.122682 6.509713 -4.273581 113.462836 2.549584 -4.153918 63.067351 0.000001 0.000000 0.000002 -8.076691 -0.486728 -3.806297 -4.198895 -8.025495 44.637779 4.252898 -4.639629 85.014811 6.935963 -4.062633 119.322271 -0.000000 -0.000000 -0.000000 4.570401 11.014685 -2.160815 1.117173 3.546354 -8.633317 -53.487037 4.935500 -51.503004 -0.000038 -106.358060 -0.000042 1.988484 -7.706201 -15.869253 2.466107 -1.576211 2.681701 -6.141107 -11.690708 -6.761672 9.914078 42.595529 3.409820 2.647873 -1.528777 1.528739 -0.422769 8.108072 27.509092 1.998905 -1.154094 1.154066 0.000000 -0.000003 0.000002 9.109283 -0.518015 2.259900 0.255276 3.378305 -45.814341 5.654091 5.847937 -88.067482 2.162097 4.544919 -50.866365 -0.000001 0.000001 -0.000004 9.533408 0.000008 -0.000001 -0.461509 3.841663 -39.722673 6.450756 5.820542 -95.892837 2.182842 4.561663 -51.127712 0.000001 0.000003 0.000001 9.104504 -0.043008 -1.865104 0.469685 4.966906 -39.799434 8.181072 5.368809 -113.502984 3.200437 5.218260 -63.022968 0.000001 0.000002 -0.000000 8.077814 -0.486887 -3.806300 -3.762460 9.063784 -45.253797 5.342525 5.829176 -85.005317 8.716911 5.103539 -119.369167 -0.000001 -0.000002 -0.000000 -8.207802 -6.751693 -1.599542 -25.526963 -10.930674 -27.469289 57.822298 -9.716252 -7.684143 -23.992991 -5.503108 20.343917 -1.421717 -0.000029 0.000004 0.000000 -0.000000 0.000000 8.207801 -6.751705 -1.599542 -31.724152 8.644879 16.396672 58.925060 -6.287647 4.272176 -24.208279 -8.307291 -13.609516 -1.594202 0.000005 0.000004 0.000000 -0.000000 0.000000 
-1.000155 88.337868 0.920080 -4.869640 -43.023290 0.537483 0.000000 10.181545 0.131521 9.383330 7.194385 -2.032718 2.130408 0.976160 -0.945625 2.145640 0.968559 -0.925123 0.000002 16.740364 -2.049018 -0.106023 13.354820 4.456173 -0.000003 9.617834 1.684978 8.022982 20.687287 -3.826164 0.000003 22.037399 7.501070 -0.000000 -0.000000 -0.000001 -4.570000 11.014883 -2.160839 2.955772 12.723957 -5.206160 -49.553948 28.701742 82.941118 0.000227 105.835509 -0.000168 -8.250061 17.799362 7.668550 -2.464795 -1.573998 2.681913 -7.341128 13.749651 7.412335 9.855777 -44.489127 -3.903163 -2.646259 -1.527812 1.527813 -0.115757 -14.513028 -28.973895 -1.994605 -1.151567 1.151566 -0.000002 -0.000001 -0.000000 -9.108294 -0.517863 2.259804 -0.124381 -2.384773 45.108892 4.500584 -4.654527 88.071198 1.723206 -3.618369 50.920119 -0.000000 0.000002 0.000006 -9.532501 0.000008 0.000001 -0.761637 -2.932893 39.031058 5.133878 -4.632749 95.881670 1.739746 -3.631691 51.181374 0.000001 0.000002 0.000005 -9.103608 -0.043094 -1.865100 0.154745 -4.068808 39.122678 6.509713 -4.273579 113.462836 2.549585 -4.153918 63.067358 -0.000001 -0.000001 -0.000001 -8.076698 -0.486729 -3.806295 -4.198896 -8.025499 44.637783 4.252899 -4.639627 85.014811 6.935964 -4.062637 119.322271 -0.000001 0.000000 0.000000 4.570402 11.014687 -2.160814 0.990825 3.281337 -7.625234 -52.935281 5.051938 -50.944595 -0.000017 -107.279432 -0.000028 2.917530 -7.103386 -15.980081 2.466107 -1.576199 2.681706 -6.141108 -11.690711 -6.761677 9.914081 42.595529 3.409820 2.647870 -1.528766 1.528758 -0.422770 8.108075 27.509092 1.998924 -1.154094 1.154078 -0.000004 0.000003 0.000003 9.109295 -0.518015 2.259911 0.255276 3.378305 -45.814341 5.654091 5.847932 -88.067482 2.162097 4.544918 -50.866365 -0.000001 0.000001 -0.000005 9.533401 0.000012 0.000001 -0.461510 3.841667 -39.722679 6.450754 5.820544 -95.892844 2.182848 4.561663 -51.127716 -0.000000 0.000001 0.000002 9.104500 -0.043008 -1.865098 0.469686 4.966907 -39.799434 8.181072 5.368810 -113.502977 3.200437 5.218259 -63.022975 0.000001 -0.000002 0.000002 8.077814 -0.486880 -3.806291 -3.762462 9.063786 -45.253797 5.342524 5.829175 -85.005311 8.716916 5.103539 -119.369167 -0.000001 -0.000002 -0.000002 -8.207805 -6.751713 -1.599542 -25.454752 -10.872429 -27.601510 57.441399 -8.859246 -7.229139 -23.822428 -5.679470 19.835120 -1.421719 -0.000030 0.000004 0.000000 0.000000 0.000000 8.207799 -6.751695 -1.599544 -31.661024 9.057469 16.870069 58.713624 -6.840017 3.897140 -24.202232 -7.994284 -13.157200 -1.594204 0.000003 0.000002 -0.000000 -0.000001 0.000000 
-0.986933 88.493202 1.159492 -4.674022 -43.434010 0.518221 -0.000000 10.181534 0.131523 9.272220 7.150980 -2.111724 2.073091 0.962459 -0.976479 2.088443 0.954367 -0.956697 0.000001 16.740372 -2.049020 -0.296611 13.489362 4.374078 -0.000001 9.617849 1.684973 7.118497 21.231969 -3.511734 -0.000001 22.037338 7.501075 -0.000000 0.000000 0.000000 -4.570000 11.014885 -2.160841 2.876405 12.420479 -5.041555 -50.391411 30.238064 82.442992 0.000220 105.682732 -0.000182 -8.149561 18.048918 6.559224 -2.464779 -1.574009 2.681908 -7.341127 13.749645 7.412329 9.855783 -44.489124 -3.903159 -2.646259 -1.527820 1.527833 -0.115759 -14.513030 -28.973895 -1.994604 -1.151572 1.151587 0.000003 -0.000003 -0.000004 -9.108306 -0.517874 2.259803 -0.124380 -2.384772 45.108892 4.500586 -4.654528 88.071198 1.723206 -3.618367 50.920119 -0.000000 0.000001 0.000001 -9.532497 0.000004 -0.000005 -0.761636 -2.932896 39.031058 5.133878 -4.632746 95.881670 1.739746 -3.631688 51.181377 0.000001 -0.000000 0.000007 -9.103584 -0.043101 -1.865108 0.154745 -4.068810 39.122678 6.509709 -4.273581 113.462843 2.549584 -4.153918 63.067351 -0.000001 -0.000001 0.000001 -8.076698 -0.486728 -3.806299 -4.198893 -8.025495 44.637783 4.252902 -4.639627 85.014811 6.935964 -4.062635 119.322271 0.000001 0.000000 -0.000000 4.570402 11.014701 -2.160817 0.869175 3.014096 -6.617837 -52.384529 5.173738 -50.387180 -0.000011 -108.200940 -0.000017 3.846764 -6.502314 -16.100626 2.466088 -1.576191 2.681695 -6.141104 -11.690708 -6.761674 9.914084 42.595536 3.409830 2.647877 -1.528743 1.528758 -0.422772 8.108078 27.509097 1.998917 -1.154059 1.154092 0.000002 0.000003 -0.000000 9.109283 -0.517996 2.259904 0.255276 3.378304 -45.814341 5.654089 5.847934 -88.067482 2.162097 4.544921 -50.866369 -0.000003 0.000000 0.000001 9.533401 0.000027 -0.000002 -0.461509 3.841665 -39.722676 6.450756 5.820541 -95.892844 2.182845 4.561665 -51.127712 -0.000002 0.000001 -0.000002 9.104515 -0.042981 -1.865097 0.469687 4.966905 -39.799434 8.181073 5.368810 -113.502984 3.200440 5.218259 -63.022968 -0.000000 0.000001 0.000001 8.077815 -0.486872 -3.806303 -3.762460 9.063781 -45.253797 5.342523 5.829174 -85.005317 8.716912 5.103540 -119.369167 -0.000001 -0.000000 -0.000002 -8.207804 -6.751715 -1.599543 -25.382414 -10.814339 -27.733783 57.054414 -8.005122 -6.769319 -23.653387 -5.857339 19.326666 -1.421712 -0.000031 0.000003 0.000000 0.000001 -0.000000 8.207802 -6.751709 -1.599548 -31.601264 9.470588 17.343585 58.498262 -7.391028 3.519574 -24.198672 -7.681232 -12.705243 -1.594203 0.000004 0.000003 0.000000 -0.000003 0.000000 
-0.973711 88.648537 1.398908 -4.477253 -43.844777 0.500771 0.000001 10.181553 0.131524 9.161064 7.107720 -2.190806 2.015768 0.948784 -1.007346 2.031240 0.940205 -0.988285 0.000000 16.740374 -2.049020 -0.487110 13.624170 4.292394 -0.000000 9.617851 1.684974 6.207429 21.771930 -3.186911 -0.000000 22.037384 7.501071 -0.000001 0.000000 0.000002 -4.570000 11.014881 -2.160839 2.798020 12.116786 -4.877568 -51.226747 31.780556 81.963213 0.000237 105.529968 -0.000183 -8.043850 18.296583 5.447855 -2.464804 -1.574008 2.681912 -7.341122 13.749649 7.412337 9.855779 -44.489124 -3.903165 -2.646267 -1.527786 1.527824 -0.115760 -14.513030 -28.973895 -1.994590 -1.151588 1.151559 -0.000001 -0.000000 0.000003 -9.108314 -0.517859 2.259803 -0.124381 -2.384769 45.108892 4.500583 -4.654528 88.071198 1.723206 -3.618369 50.920119 -0.000001 -0.000001 0.000003 -9.532501 0.000004 -0.000006 -0.761637 -2.932893 39.031065 5.133876 -4.632747 95.881670 1.739748 -3.631692 51.181377 -0.000002 0.000000 0.000003 -9.103607 -0.043105 -1.865108 0.154743 -4.068810 39.122682 6.509712 -4.273581 113.462843 2.549584 -4.153921 63.067358 0.000000 0.000000 0.000002 -8.076680 -0.486728 -3.806302 -4.198895 -8.025495 44.637783 4.252907 -4.639627 85.014811 6.935966 -4.062637 119.322271 0.000002 -0.000000 -0.000000 4.570401 11.014693 -2.160814 0.752277 2.744776 -5.611247 -51.834879 5.300858 -49.830837 -0.000007 -109.122422 -0.000011 4.776209 -5.903265 -16.230819 2.466107 -1.576211 2.681702 -6.141107 -11.690708 -6.761676 9.914082 42.595532 3.409817 2.647873 -1.528747 1.528750 -0.422770 8.108078 27.509096 1.998929 -1.154081 1.154085 0.000000 -0.000000 -0.000002 9.109291 -0.518011 2.259896 0.255277 3.378308 -45.814344 5.654091 5.847934 -88.067482 2.162097 4.544919 -50.866369 -0.000002 -0.000001 0.000000 9.533427 0.000012 -0.000002 -0.461510 3.841666 -39.722679 6.450755 5.820543 -95.892844 2.182848 4.561664 -51.127716 -0.000001 0.000003 -0.000006 9.104504 -0.043007 -1.865101 0.469688 4.966909 -39.799434 8.181073 5.368807 -113.502984 3.200441 5.218260 -63.022968 0.000000 0.000002 0.000001 8.077826 -0.486879 -3.806303 -3.762460 9.063785 -45.253801 5.342523 5.829176 -85.005317 8.716914 5.103538 -119.369181 0.000001 -0.000000 0.000003 -8.207803 -6.751722 -1.599546 -25.309956 -10.756420 -27.866106 56.661279 -7.154113 -6.304603 -23.485892 -6.036707 18.818580 -1.421717 -0.000029 0.000003 -0.000000 0.000001 -0.000000 8.207798 -6.751701 -1.599542 -31.544894 9.884174 17.817240 58.278972 -7.940620 3.139431 -24.197619 -7.368166 -12.253622 -1.594201 0.000004 0.000003 0.000000 -0.000001 0.000000 
